<svg viewBox="0 0 24 24" xmlns="http://www.w3.org/2000/svg">
  <defs>
    <linearGradient id="youtubeDecayGradient" x1="0%" y1="0%" x2="100%" y2="100%">
      <stop offset="0%" style="stop-color:#666666;stop-opacity:0.8" />
      <stop offset="50%" style="stop-color:#999999;stop-opacity:0.6" />
      <stop offset="100%" style="stop-color:#444444;stop-opacity:0.7" />
    </linearGradient>
    <filter id="decay">
      <feColorMatrix type="saturate" values="0.3"/>
      <feGaussianBlur stdDeviation="1" result="blur"/>
      <feMerge> 
        <feMergeNode in="blur"/>
        <feMergeNode in="SourceGraphic"/>
      </feMerge>
    </filter>
  </defs>
  <path d="M12 21.35l-1.45-1.32C5.4 15.36 2 12.28 2 8.5 2 5.42 4.42 3 7.5 3c1.74 0 3.41.81 4.5 2.09C13.09 3.81 14.76 3 16.5 3 19.58 3 22 5.42 22 8.5c0 3.78-3.4 6.86-8.55 11.54L12 21.35z" 
        fill="url(#youtubeDecayGradient)" 
        filter="url(#decay)"
        stroke="#333" 
        stroke-width="0.3"/>
  <!-- Crack lines -->
  <path d="M9 7 L15 13 M7 12 L13 16 M17 8 L19 10" 
        stroke="#000" 
        stroke-width="1" 
        opacity="0.6"
        stroke-linecap="round"/>
  <path d="M6 16 L10 19 M14 5 L16 7" 
        stroke="#000" 
        stroke-width="0.8" 
        opacity="0.4"
        stroke-linecap="round"/>
  <!-- Glitch effect -->
  <animate attributeName="opacity" values="0.7;0.3;0.7;0.4;0.7" dur="2.5s" repeatCount="indefinite"/>
</svg>